<svg xmlns="http://www.w3.org/2000/svg" xmlns:xlink="http://www.w3.org/1999/xlink" viewBox="0 0 177.13 192.23"><defs><style>.cls-1,.cls-3{fill:none;}.cls-2{fill:url(#linear-gradient);}.cls-3{stroke-miterlimit:10;stroke-width:2px;stroke:url(#linear-gradient-2);}.cls-4{font-size:62.15px;fill:#231f20;font-family:Galvji;letter-spacing:-0.05em;}</style><linearGradient id="linear-gradient" x1="163.37" y1="70.18" x2="43.88" y2="70.18" gradientUnits="userSpaceOnUse"><stop offset="0" stop-color="#c1529e"/><stop offset="1" stop-color="#66cbdf"/></linearGradient><linearGradient id="linear-gradient-2" x1="53.55" y1="84.93" x2="154.19" y2="84.93" gradientUnits="userSpaceOnUse"><stop offset="0" stop-color="#66cbdf"/><stop offset="1" stop-color="#c1529e"/></linearGradient></defs><g id="Layer_2" data-name="Layer 2"><g id="Layer_1-2" data-name="Layer 1"><rect class="cls-1" width="177.13" height="192.23"/><path class="cls-2" d="M85.14,90.32a8.67,8.67,0,1,1,8.67-8.67A8.67,8.67,0,0,1,85.14,90.32Zm23.6-39a5.83,5.83,0,1,0-5.83,5.83A5.83,5.83,0,0,0,108.74,51.31Zm.87,17.25a5.68,5.68,0,1,0-5.67,5.67A5.67,5.67,0,0,0,109.61,68.56Zm19.23-11.9a6.23,6.23,0,1,0-6.23,6.23A6.22,6.22,0,0,0,128.84,56.66Zm2.44,20.12a8.67,8.67,0,1,0-8.67,8.67A8.67,8.67,0,0,0,131.28,76.78ZM147,49.3a6.27,6.27,0,1,0-6.27,6.27A6.27,6.27,0,0,0,147,49.3Zm-3.35,17.14a4.15,4.15,0,1,0-4.15,4.14A4.14,4.14,0,0,0,143.67,66.44ZM108,86.43a4.14,4.14,0,1,0-4.14,4.15A4.15,4.15,0,0,0,108,86.43Zm35.32,5.92a2.94,2.94,0,1,0-2.93,2.94A2.93,2.93,0,0,0,143.34,92.35Zm12.19-3.29a2.63,2.63,0,1,0-2.63,2.62A2.63,2.63,0,0,0,155.53,89.06ZM67.19,40.34a7.08,7.08,0,1,0,7.08,7.08A7.08,7.08,0,0,0,67.19,40.34ZM85.28,50A5.68,5.68,0,1,0,91,55.65,5.68,5.68,0,0,0,85.28,50Zm0-5A5.68,5.68,0,1,0,79.6,39.3,5.67,5.67,0,0,0,85.28,45ZM68.5,60.42a4.14,4.14,0,1,0,4.14,4.14A4.14,4.14,0,0,0,68.5,60.42Zm-14,8.24A4.14,4.14,0,1,0,58.7,72.8,4.14,4.14,0,0,0,54.55,68.66Zm0-7.91a2.63,2.63,0,1,0-2.62-2.63A2.63,2.63,0,0,0,54.55,60.75Zm13,15.15a3.57,3.57,0,1,0,3.56,3.57A3.57,3.57,0,0,0,67.56,75.9ZM156.76,60a3.57,3.57,0,1,0-3.57,3.56A3.57,3.57,0,0,0,156.76,60Zm0,14.51a3.57,3.57,0,1,0-3.57,3.56A3.57,3.57,0,0,0,156.76,74.52ZM115.35,36.17a3.57,3.57,0,1,0-3.56,3.57A3.56,3.56,0,0,0,115.35,36.17Zm-12.95-.65a3.57,3.57,0,1,0-3.56,3.56A3.56,3.56,0,0,0,102.4,35.52Zm4.76,64.15a3.57,3.57,0,1,0-3.57,3.56A3.57,3.57,0,0,0,107.16,99.67Zm11.76,6.12a2.63,2.63,0,1,0-2.63,2.62A2.63,2.63,0,0,0,118.92,105.79Zm11.77-66.47a4.19,4.19,0,1,0-4.18,4.19A4.18,4.18,0,0,0,130.69,39.32Zm-8.5,53.92a4.55,4.55,0,1,0-4.55,4.55A4.55,4.55,0,0,0,122.19,93.24Zm22.69-11.89a4.55,4.55,0,1,0-4.55,4.55A4.55,4.55,0,0,0,144.88,81.35Zm-15.6,21.08a3.9,3.9,0,1,0-3.89-3.89A3.89,3.89,0,0,0,129.28,102.43Z"/><path class="cls-3" d="M126.51,39.32l14.24,10-1.23,17.14L153.19,60V74.52M117.64,93.24l11.64,5.3,11.13-6.19-.08-11,12.57,7.71M54.55,58.12V72.8l13,6.67.94-14.91,16.78-8.91L67.19,47.42,85.28,39.3m31,66.49-12.7-6.12.29-13.24,18.73-9.65V56.66L111.79,36.17l-13-.65,4.07,15.79,1,17.25L85.14,81.65,82.63,98.92m46.65-.38v36.87"/><text class="cls-4" transform="translate(2.94 144.05)">SaisiR</text></g></g></svg>